<svg width="136" height="68" fill="none" xmlns="http://www.w3.org/2000/svg"><path id="Vector" d="M41.41 51.28c-1.27-3.55-3.9-5.33-7.88-5.33h-1.25v21.89h1.25c3.08 0 5.35-1.21 6.81-3.63 1.23-2.07 1.85-4.7 1.85-7.9 0-1.9-.26-3.58-.78-5.03ZM19.88 51.54c1.28 3.55 3.9 5.32 7.88 5.32h1.25V34.98h-1.25c-3.08 0-5.34 1.21-6.81 3.63-1.23 2.07-1.84 4.7-1.84 7.9 0 1.89.25 3.57.77 5.03ZM-1 .02h16.69v5.8H4.99v2.9h8.89v5.5H4.99v2.93h10.7v5.79H-1V.02ZM24.09 0H45.7L34.89 23.41 24.09 0Zm10.8 20.51 8.93-19.3H26l8.89 19.3ZM54.32.02h16.7v5.8h-10.7v2.9h8.89v5.5h-8.89v2.93h10.7v5.79h-16.7V.02ZM81.3 22.91V0h1.28l16.01 15.57V0h1.22v22.92l-18.51-.01ZM117.3 22.94V5.82h-8.67V.02h18.51v5.8h-8.66v17.12h-1.18ZM8.84 39.54c1.45 0 2.6.22 3.46.66.98.48 1.81 1.23 2.38 2.17.57.93.87 2.01.85 3.1 0 1.06-.29 2.09-.86 2.98-.57.92-1.38 1.66-2.34 2.16 1.19.42 2.23 1.17 3 2.17.8.99 1.23 2.23 1.22 3.49.01 1.11-.3 2.2-.87 3.15-.57.94-1.37 1.72-2.33 2.26a6.1 6.1 0 0 1-1.61.59c-.59.13-1.38.2-2.37.2H-.78V39.54h9.62ZM47.46 60.8c-1.73-1.5-2.58-3.76-2.56-6.76h5.37c-.02 1.25.35 2.2 1.12 2.86.77.66 1.85.99 3.23.99 1.14 0 2.04-.19 2.7-.56.66-.37.99-.95.99-1.71 0-.64-.34-1.1-1.01-1.39-.64-.27-1.3-.48-1.99-.61-.66-.12-1.06-.19-1.22-.22-1.49-.27-2.95-.68-4.38-1.2a7.661 7.661 0 0 1-3.09-2.14c-.84-.97-1.25-2.24-1.25-3.82 0-1.59.41-2.93 1.25-4.04.83-1.11 1.95-1.94 3.34-2.49 1.45-.56 3-.84 4.56-.82 2 0 3.73.37 5.19 1.12 1.46.75 2.61 1.88 3.44 3.39.39.64.64 1.35.76 2.09.08.65.13 1.31.13 1.96h-5.37c0-1.18-.32-2.05-.95-2.61-.64-.56-1.63-.84-2.97-.84-1.07 0-1.91.18-2.5.56-.59.37-.89.87-.89 1.51 0 .7.4 1.22 1.19 1.55.97.38 1.97.68 2.99.89 1.98.39 3.52.77 4.63 1.13a6.51 6.51 0 0 1 2.88 1.93c.81.92 1.22 2.22 1.22 3.89 0 1.58-.44 2.94-1.32 4.08-.88 1.14-2.03 2.02-3.47 2.62-1.48.61-3.06.92-4.66.9-3.19 0-5.64-.75-7.36-2.26ZM77.77 62.47V45.34h-8.66v-5.8h18.51v5.8h-8.66v17.13h-1.19ZM93.85 39.54h16.69v5.8h-10.7v2.9h8.89v5.5h-8.89v2.93h10.7v5.8H93.85V39.54ZM135.28 62.47h-17.62V39.54h8.92c1.91 0 3.47.34 4.68 1.02 1.15.63 2.11 1.57 2.76 2.71a7.27 7.27 0 0 1 .99 3.78c.02 1.67-.54 3.29-1.58 4.6a7.442 7.442 0 0 1-3.98 2.68l5.83 8.14Zm-16.41-20.92v11.83h8.47l-8.47-11.83Zm0 19.7h14.1l-4.81-6.69-1.02.04h-8.27v6.65Zm.86-20.49 8.96 12.52a6.333 6.333 0 0 0 3.66-2.21 6.087 6.087 0 0 0 1.44-4.02c.02-1.16-.29-2.3-.89-3.29a5.777 5.777 0 0 0-2.5-2.27c-.96-.49-2.23-.73-3.79-.73h-6.88Z" fill="#FFF" fill-opacity="1" fill-rule="nonzero"/></svg>